# xmcd
#
# Track frame offsets: 
#        150
#        21225
#        40588
#        61129
#        76262
#        97506
#        114361
#        133778
#        150963
#        169748
#
# Disc length: 2528 seconds
#
# Revision: 0
# Processed by: cddbd v1.5.2PL0 Copyright (c) Steve Scherf et al.
# Submitted via: ExactAudioCopy v1.1
#
DISCID=6409de0a
DTITLE=吳婉芳 - 秋颸（環球復黑王）
DYEAR=1990
DGENRE=Country
TTITLE0=醉生如夢
TTITLE1=好傢伙
TTITLE2=准我離開吧
TTITLE3=浪漫歲月
TTITLE4=摘星的電梯
TTITLE5=情場戰場
TTITLE6=地老天荒
TTITLE7=情難自控
TTITLE8=門內門外
TTITLE9=尋尋覓覓
EXTD=
EXTT0=
EXTT1=
EXTT2=
EXTT3=
EXTT4=
EXTT5=
EXTT6=
EXTT7=
EXTT8=
EXTT9=
PLAYORDER=
